<svg width="28" height="28" viewBox="0 0 28 28" fill="none" xmlns="http://www.w3.org/2000/svg">
<path d="M14 28C21.732 28 28 21.732 28 14C28 6.26801 21.732 0 14 0C6.26801 0 0 6.26801 0 14C0 21.732 6.26801 28 14 28Z" fill="white"/>
<path fill-rule="evenodd" clip-rule="evenodd" d="M28 14C28 21.732 21.732 28 14 28C6.26801 28 0 21.732 0 14C0 6.26801 6.26801 0 14 0C21.732 0 28 6.26801 28 14ZM20.6238 11.2939C21.0612 10.8565 21.0612 10.1474 20.6238 9.70997C20.1865 9.27259 19.4773 9.27259 19.0399 9.70997L11.6652 17.0847L8.95718 14.3766C8.51979 13.9393 7.81065 13.9393 7.37326 14.3766C6.93587 14.814 6.93587 15.5232 7.37326 15.9606L10.9581 19.5454C11.3486 19.9359 11.9818 19.9359 12.3723 19.5454L20.6238 11.2939Z" fill="#DEA100"/>
</svg>
